<?xml version="1.0" encoding="UTF-8"?>
<svg xmlns="http://www.w3.org/2000/svg" width="800" height="800" viewBox="-400 -400 800 800" style="font-family: sans-serif; font-size: 10px;"><g><path d="M0,-62.5A62.5,62.5,0,1,1,-3.924,62.377L0,0Z" fill="#3498DB" stroke="#fff" stroke-width="1"><title>Commutative Algebra
102</title></path><path d="M-3.924,62.377A62.5,62.5,0,0,1,0,-62.5L0,0Z" fill="#E67E22" stroke="#fff" stroke-width="1"><title>Abstract Algebra
98</title></path><path d="M0,-125A125,125,0,0,1,124.938,3.926L62.469,1.963A62.5,62.5,0,0,0,0,-62.5Z" fill="#9B59B6" stroke="#fff" stroke-width="1"><title>Commutative Algebra / Ideal Theory
51</title></path><path d="M124.938,3.926A125,125,0,0,1,73.473,101.127L36.737,50.564A62.5,62.5,0,0,0,62.469,1.963Z" fill="#3498DB" stroke="#fff" stroke-width="1"><title>Commutative Algebra / Dimension Theory and Smoothness
29</title></path><path d="M73.473,101.127A125,125,0,0,1,-7.849,124.753L-3.924,62.377A62.5,62.5,0,0,0,36.737,50.564Z" fill="#27AE60" stroke="#fff" stroke-width="1"><title>Commutative Algebra / Other Topics
22</title></path><path d="M-7.849,124.753A125,125,0,0,1,-23.423,122.786L-11.711,61.393A62.5,62.5,0,0,0,-3.924,62.377Z" fill="#B4DC0D" stroke="#fff" stroke-width="1"><title>Abstract Algebra / Other Topics
4</title></path><path d="M-23.423,122.786A125,125,0,0,1,-124.753,-7.849L-62.377,-3.924A62.5,62.5,0,0,0,-11.711,61.393Z" fill="#F1C40F" stroke="#fff" stroke-width="1"><title>Abstract Algebra / Field Theory
46</title></path><path d="M-124.753,-7.849A125,125,0,0,1,-76.613,-98.769L-38.307,-49.385A62.5,62.5,0,0,0,-62.377,-3.924Z" fill="#F39C12" stroke="#fff" stroke-width="1"><title>Abstract Algebra / Group Theory
27</title></path><path d="M-76.613,-98.769A125,125,0,0,1,0,-125L0,-62.5A62.5,62.5,0,0,0,-38.307,-49.385Z" fill="#E74C3C" stroke="#fff" stroke-width="1"><title>Abstract Algebra / Ring Theory
21</title></path><path d="M0,-250A250,250,0,0,1,106.445,-226.207L53.222,-113.103A125,125,0,0,0,0,-125Z" fill="#744389" stroke="#fff" stroke-width="1"><title>Commutative Algebra / Ideal Theory / Ideals and Modules
14</title></path><path d="M106.445,-226.207A250,250,0,0,1,146.946,-202.254L73.473,-101.127A125,125,0,0,0,53.222,-113.103Z" fill="#814a97" stroke="#fff" stroke-width="1"><title>Commutative Algebra / Ideal Theory / Localization and Decomposition of Ideals
6</title></path><path d="M146.946,-202.254A250,250,0,0,1,211.082,-133.957L105.541,-66.978A125,125,0,0,0,73.473,-101.127Z" fill="#8d51a6" stroke="#fff" stroke-width="1"><title>Commutative Algebra / Ideal Theory / Integral Dependence and the Nullstellensatz
12</title></path><path d="M211.082,-133.957A250,250,0,0,1,226.207,-106.445L113.103,-53.222A125,125,0,0,0,105.541,-66.978Z" fill="#9958b4" stroke="#fff" stroke-width="1"><title>Commutative Algebra / Ideal Theory / Noetherian rings and Chain Conditions
4</title></path><path d="M226.207,-106.445A250,250,0,0,1,240.073,-69.748L120.037,-34.874A125,125,0,0,0,113.103,-53.222Z" fill="#a65fc3" stroke="#fff" stroke-width="1"><title>Commutative Algebra / Ideal Theory / Dedekind Domains and DVRs
5</title></path><path d="M240.073,-69.748A250,250,0,0,1,249.877,7.853L124.938,3.926A125,125,0,0,0,120.037,-34.874Z" fill="#b266d1" stroke="#fff" stroke-width="1"><title>Commutative Algebra / Ideal Theory / Tensor Product and Flatness
10</title></path><path d="M249.877,7.853A250,250,0,0,1,246.922,39.109L123.461,19.554A125,125,0,0,0,124.938,3.926Z" fill="#2772a4" stroke="#fff" stroke-width="1"><title>Commutative Algebra / Dimension Theory and Smoothness / Smoothness and the Module of Differentials
4</title></path><path d="M246.922,39.109A250,250,0,0,1,229.439,99.287L114.719,49.643A125,125,0,0,0,123.461,19.554Z" fill="#2b7eb6" stroke="#fff" stroke-width="1"><title>Commutative Algebra / Dimension Theory and Smoothness / Heights and Dimensions
8</title></path><path d="M229.439,99.287A250,250,0,0,1,192.628,159.356L96.314,79.678A125,125,0,0,0,114.719,49.643Z" fill="#2f8ac7" stroke="#fff" stroke-width="1"><title>Commutative Algebra / Dimension Theory and Smoothness / Regular Sequences and Regular Local Rings
9</title></path><path d="M192.628,159.356A250,250,0,0,1,146.946,202.254L73.473,101.127A125,125,0,0,0,96.314,79.678Z" fill="#3396d9" stroke="#fff" stroke-width="1"><title>Commutative Algebra / Dimension Theory and Smoothness / Depth, Cohen-Macaulay Rings and Gorenstein rings
8</title></path><path d="M146.946,202.254A250,250,0,0,1,113.498,222.752L56.749,111.376A125,125,0,0,0,73.473,101.127Z" fill="#1d8348" stroke="#fff" stroke-width="1"><title>Commutative Algebra / Other Topics / Completions and Hensel's lemma
5</title></path><path d="M113.498,222.752A250,250,0,0,1,54.536,243.979L27.268,121.99A125,125,0,0,0,56.749,111.376Z" fill="#209050" stroke="#fff" stroke-width="1"><title>Commutative Algebra / Other Topics / Algebraic Number Theory and Valuation Theory
8</title></path><path d="M54.536,243.979A250,250,0,0,1,7.853,249.877L3.926,124.938A125,125,0,0,0,27.268,121.99Z" fill="#239e57" stroke="#fff" stroke-width="1"><title>Commutative Algebra / Other Topics / Algebraic and Arithmetic Dynamics
6</title></path><path d="M7.853,249.877A250,250,0,0,1,-7.853,249.877L-3.926,124.938A125,125,0,0,0,3.926,124.938Z" fill="#27ac5f" stroke="#fff" stroke-width="1"><title>Commutative Algebra / Other Topics / Homological Methods
2</title></path><path d="M-7.853,249.877A250,250,0,0,1,-15.698,249.507L-7.849,124.753A125,125,0,0,0,-3.926,124.938Z" fill="#2aba67" stroke="#fff" stroke-width="1"><title>Commutative Algebra / Other Topics / Noncommutative Algebras
1</title></path><path d="M-15.698,249.507A250,250,0,0,1,-39.109,246.922L-19.554,123.461A125,125,0,0,0,-7.849,124.753Z" fill="#87a50a" stroke="#fff" stroke-width="1"><title>Abstract Algebra / Other Topics / Linear Algebra
3</title></path><path d="M-39.109,246.922A250,250,0,0,1,-46.845,245.572L-23.423,122.786A125,125,0,0,0,-19.554,123.461Z" fill="#95b70b" stroke="#fff" stroke-width="1"><title>Abstract Algebra / Other Topics / Elementary Number Theory
1</title></path><path d="M-46.845,245.572A250,250,0,0,1,-133.957,211.082L-66.978,105.541A125,125,0,0,0,-23.423,122.786Z" fill="#b5930b" stroke="#fff" stroke-width="1"><title>Abstract Algebra / Field Theory / Field Extensions
12</title></path><path d="M-133.957,211.082A250,250,0,0,1,-237.764,77.254L-118.882,38.627A125,125,0,0,0,-66.978,105.541Z" fill="#c8a30c" stroke="#fff" stroke-width="1"><title>Abstract Algebra / Field Theory / Galois theory
22</title></path><path d="M-237.764,77.254A250,250,0,0,1,-249.507,-15.698L-124.753,-7.849A125,125,0,0,0,-118.882,38.627Z" fill="#dbb20e" stroke="#fff" stroke-width="1"><title>Abstract Algebra / Field Theory / Explicit Computations
12</title></path><path d="M-249.507,-15.698A250,250,0,0,1,-245.572,-46.845L-122.786,-23.423A125,125,0,0,0,-124.753,-7.849Z" fill="#b6750e" stroke="#fff" stroke-width="1"><title>Abstract Algebra / Group Theory / Basic Axioms and Examples
4</title></path><path d="M-245.572,-46.845A250,250,0,0,1,-232.444,-92.031L-116.222,-46.016A125,125,0,0,0,-122.786,-23.423Z" fill="#ca810f" stroke="#fff" stroke-width="1"><title>Abstract Algebra / Group Theory / Subgroups and Quotient groups
6</title></path><path d="M-232.444,-92.031A250,250,0,0,1,-171.137,-182.242L-85.568,-91.121A125,125,0,0,0,-116.222,-46.016Z" fill="#dd8e10" stroke="#fff" stroke-width="1"><title>Abstract Algebra / Group Theory / Group Actions and Sylow theorems
14</title></path><path d="M-171.137,-182.242A250,250,0,0,1,-153.227,-197.539L-76.613,-98.769A125,125,0,0,0,-85.568,-91.121Z" fill="#f19a12" stroke="#fff" stroke-width="1"><title>Abstract Algebra / Group Theory / p-Groups, Nilpotent Groups and Solvable Groups
3</title></path><path d="M-153.227,-197.539A250,250,0,0,1,-120.438,-219.077L-60.219,-109.538A125,125,0,0,0,-76.613,-98.769Z" fill="#ad392d" stroke="#fff" stroke-width="1"><title>Abstract Algebra / Ring Theory / Basic Definitions and Examples
5</title></path><path d="M-120.438,-219.077A250,250,0,0,1,-84.684,-235.22L-42.342,-117.61A125,125,0,0,0,-60.219,-109.538Z" fill="#c03f32" stroke="#fff" stroke-width="1"><title>Abstract Algebra / Ring Theory / PID, ED and UFD
5</title></path><path d="M-84.684,-235.22A250,250,0,0,1,0,-250L0,-125A125,125,0,0,0,-42.342,-117.61Z" fill="#d24537" stroke="#fff" stroke-width="1"><title>Abstract Algebra / Ring Theory / Polynomials
11</title></path><text transform="rotate(1.7999999999999972) translate(31.25,0) rotate(90)" dy="0.35em" text-anchor="middle" font-size="10px" style="pointer-events: none; fill: rgb(255, 255, 255); font-weight: bold; text-shadow: rgba(0, 0, 0, 0.8) 0.625px 0.625px 1.25px;"><tspan x="0" dy="0">Commutative</tspan><tspan x="0" dy="1.2em">Algebra</tspan></text><text transform="rotate(181.8) translate(31.25,0) rotate(270)" dy="0.35em" text-anchor="middle" font-size="10px" style="pointer-events: none; fill: rgb(255, 255, 255); font-weight: bold; text-shadow: rgba(0, 0, 0, 0.8) 0.625px 0.625px 1.25px;"><tspan x="0" dy="0">Abstract</tspan><tspan x="0" dy="1.2em">Algebra</tspan></text><text transform="rotate(-44.1) translate(93.75,0) rotate(90)" dy="0.35em" text-anchor="middle" font-size="8.75px" style="pointer-events: none; fill: rgb(255, 255, 255); font-weight: bold; text-shadow: rgba(0, 0, 0, 0.8) 0.625px 0.625px 1.25px;">Ideal Theory</text><text transform="rotate(27.900000000000006) translate(93.75,0) rotate(0)" dy="0.35em" text-anchor="middle" font-size="6.25px" style="pointer-events: none; fill: rgb(255, 255, 255); font-weight: bold; text-shadow: rgba(0, 0, 0, 0.8) 0.625px 0.625px 1.25px;"><tspan x="0" dy="0">Dimension Theory</tspan><tspan x="0" dy="1.2em">and Smoothness</tspan></text><text transform="rotate(73.79999999999998) translate(93.75,0) rotate(0)" dy="0.35em" text-anchor="middle" font-size="8.75px" style="pointer-events: none; fill: rgb(255, 255, 255); font-weight: bold; text-shadow: rgba(0, 0, 0, 0.8) 0.625px 0.625px 1.25px;">Other Topics</text><text transform="rotate(97.20000000000002) translate(93.75,0) rotate(180)" dy="0.35em" text-anchor="middle" font-size="8.4375px" style="pointer-events: none; fill: rgb(255, 255, 255); font-weight: bold; text-shadow: rgba(0, 0, 0, 0.8) 0.625px 0.625px 1.25px;">Other Topics</text><text transform="rotate(142.2) translate(93.75,0) rotate(270)" dy="0.35em" text-anchor="middle" font-size="8.75px" style="pointer-events: none; fill: rgb(255, 255, 255); font-weight: bold; text-shadow: rgba(0, 0, 0, 0.8) 0.625px 0.625px 1.25px;">Field Theory</text><text transform="rotate(207.90000000000003) translate(93.75,0) rotate(90)" dy="0.35em" text-anchor="middle" font-size="8.75px" style="pointer-events: none; fill: rgb(255, 255, 255); font-weight: bold; text-shadow: rgba(0, 0, 0, 0.8) 0.625px 0.625px 1.25px;">Group Theory</text><text transform="rotate(251.09999999999997) translate(93.75,0) rotate(90)" dy="0.35em" text-anchor="middle" font-size="8.75px" style="pointer-events: none; fill: rgb(255, 255, 255); font-weight: bold; text-shadow: rgba(0, 0, 0, 0.8) 0.625px 0.625px 1.25px;">Ring Theory</text><text transform="rotate(-77.4) translate(187.5,0) rotate(0)" dy="0.35em" text-anchor="middle" font-size="9.375px" style="pointer-events: none; fill: rgb(255, 255, 255); font-weight: bold; text-shadow: rgba(0, 0, 0, 0.8) 0.625px 0.625px 1.25px;">Ideals and Modules</text><text transform="rotate(-59.39999999999999) translate(187.5,0) rotate(0)" dy="0.35em" text-anchor="middle" font-size="5px" style="pointer-events: none; fill: rgb(255, 255, 255); font-weight: bold; text-shadow: rgba(0, 0, 0, 0.8) 0.625px 0.625px 1.25px;">Localization and Decomposition of Ideals</text><text transform="rotate(-43.199999999999996) translate(187.5,0) rotate(0)" dy="0.35em" text-anchor="middle" font-size="5.9765625px" style="pointer-events: none; fill: rgb(255, 255, 255); font-weight: bold; text-shadow: rgba(0, 0, 0, 0.8) 0.625px 0.625px 1.25px;"><tspan x="0" dy="0">Integral Dependence and</tspan><tspan x="0" dy="1.1em">the Nullstellensatz</tspan></text><text transform="rotate(-28.79999999999999) translate(187.5,0) rotate(0)" dy="0.35em" text-anchor="middle" font-size="5px" style="pointer-events: none; fill: rgb(255, 255, 255); font-weight: bold; text-shadow: rgba(0, 0, 0, 0.8) 0.625px 0.625px 1.25px;">Noetherian rings and Chain Conditions</text><text transform="rotate(-20.700000000000003) translate(187.5,0) rotate(0)" dy="0.35em" text-anchor="middle" font-size="5px" style="pointer-events: none; fill: rgb(255, 255, 255); font-weight: bold; text-shadow: rgba(0, 0, 0, 0.8) 0.625px 0.625px 1.25px;">Dedekind Domains and DVRs</text><text transform="rotate(-7.200000000000003) translate(187.5,0) rotate(0)" dy="0.35em" text-anchor="middle" font-size="7.96875px" style="pointer-events: none; fill: rgb(255, 255, 255); font-weight: bold; text-shadow: rgba(0, 0, 0, 0.8) 0.625px 0.625px 1.25px;">Tensor Product and Flatness</text><text transform="rotate(5.3999999999999915) translate(187.5,0) rotate(0)" dy="0.35em" text-anchor="middle" font-size="5px" style="pointer-events: none; fill: rgb(255, 255, 255); font-weight: bold; text-shadow: rgba(0, 0, 0, 0.8) 0.625px 0.625px 1.25px;"><tspan x="0" dy="0">Smoothness and the</tspan><tspan x="0" dy="1.1em">Module of Differentials</tspan></text><text transform="rotate(16.19999999999999) translate(187.5,0) rotate(0)" dy="0.35em" text-anchor="middle" font-size="7.03125px" style="pointer-events: none; fill: rgb(255, 255, 255); font-weight: bold; text-shadow: rgba(0, 0, 0, 0.8) 0.625px 0.625px 1.25px;">Heights and Dimensions</text><text transform="rotate(31.49999999999997) translate(187.5,0) rotate(0)" dy="0.35em" text-anchor="middle" font-size="5.9765625px" style="pointer-events: none; fill: rgb(255, 255, 255); font-weight: bold; text-shadow: rgba(0, 0, 0, 0.8) 0.625px 0.625px 1.25px;"><tspan x="0" dy="0">Regular Sequences and</tspan><tspan x="0" dy="1.1em">Regular Local Rings</tspan></text><text transform="rotate(46.79999999999998) translate(187.5,0) rotate(0)" dy="0.35em" text-anchor="middle" font-size="5px" style="pointer-events: none; fill: rgb(255, 255, 255); font-weight: bold; text-shadow: rgba(0, 0, 0, 0.8) 0.625px 0.625px 1.25px;"><tspan x="0" dy="0">Depth, Cohen-Macaulay Rings</tspan><tspan x="0" dy="1.1em">and Gorenstein rings</tspan></text><text transform="rotate(58.5) translate(187.5,0) rotate(0)" dy="0.35em" text-anchor="middle" font-size="5px" style="pointer-events: none; fill: rgb(255, 255, 255); font-weight: bold; text-shadow: rgba(0, 0, 0, 0.8) 0.625px 0.625px 1.25px;">Completions and Hensel's lemma</text><text transform="rotate(70.20000000000002) translate(187.5,0) rotate(0)" dy="0.35em" text-anchor="middle" font-size="5px" style="pointer-events: none; fill: rgb(255, 255, 255); font-weight: bold; text-shadow: rgba(0, 0, 0, 0.8) 0.625px 0.625px 1.25px;"><tspan x="0" dy="0">Algebraic Number Theory</tspan><tspan x="0" dy="1.1em">and Valuation Theory</tspan></text><text transform="rotate(82.80000000000001) translate(187.5,0) rotate(0)" dy="0.35em" text-anchor="middle" font-size="5.9765625px" style="pointer-events: none; fill: rgb(255, 255, 255); font-weight: bold; text-shadow: rgba(0, 0, 0, 0.8) 0.625px 0.625px 1.25px;"><tspan x="0" dy="0">Algebraic and</tspan><tspan x="0" dy="1.1em">Arithmetic Dynamics</tspan></text><text transform="rotate(90) translate(187.5,0) rotate(0)" dy="0.35em" text-anchor="middle" font-size="5px" style="pointer-events: none; fill: rgb(255, 255, 255); font-weight: bold; text-shadow: rgba(0, 0, 0, 0.8) 0.625px 0.625px 1.25px;">Homological Methods</text><text transform="rotate(92.69999999999996) translate(187.5,0) rotate(180)" dy="0.35em" text-anchor="middle" font-size="5px" style="pointer-events: none; fill: rgb(255, 255, 255); font-weight: bold; text-shadow: rgba(0, 0, 0, 0.8) 0.625px 0.625px 1.25px;">Noncommutative Algebras</text><text transform="rotate(96.30000000000001) translate(187.5,0) rotate(180)" dy="0.35em" text-anchor="middle" font-size="5px" style="pointer-events: none; fill: rgb(255, 255, 255); font-weight: bold; text-shadow: rgba(0, 0, 0, 0.8) 0.625px 0.625px 1.25px;">Linear Algebra</text><text transform="rotate(99.9) translate(187.5,0) rotate(180)" dy="0.35em" text-anchor="middle" font-size="5px" style="pointer-events: none; fill: rgb(255, 255, 255); font-weight: bold; text-shadow: rgba(0, 0, 0, 0.8) 0.625px 0.625px 1.25px;">Elementary Number Theory</text><text transform="rotate(111.60000000000002) translate(187.5,0) rotate(180)" dy="0.35em" text-anchor="middle" font-size="9.375px" style="pointer-events: none; fill: rgb(255, 255, 255); font-weight: bold; text-shadow: rgba(0, 0, 0, 0.8) 0.625px 0.625px 1.25px;">Field Extensions</text><text transform="rotate(142.2) translate(187.5,0) rotate(180)" dy="0.35em" text-anchor="middle" font-size="9.375px" style="pointer-events: none; fill: rgb(255, 255, 255); font-weight: bold; text-shadow: rgba(0, 0, 0, 0.8) 0.625px 0.625px 1.25px;">Galois theory</text><text transform="rotate(172.8) translate(187.5,0) rotate(180)" dy="0.35em" text-anchor="middle" font-size="9.375px" style="pointer-events: none; fill: rgb(255, 255, 255); font-weight: bold; text-shadow: rgba(0, 0, 0, 0.8) 0.625px 0.625px 1.25px;">Explicit Computations</text><text transform="rotate(187.19999999999993) translate(187.5,0) rotate(180)" dy="0.35em" text-anchor="middle" font-size="5px" style="pointer-events: none; fill: rgb(255, 255, 255); font-weight: bold; text-shadow: rgba(0, 0, 0, 0.8) 0.625px 0.625px 1.25px;">Basic Axioms and Examples</text><text transform="rotate(196.2) translate(187.5,0) rotate(180)" dy="0.35em" text-anchor="middle" font-size="5.9765625px" style="pointer-events: none; fill: rgb(255, 255, 255); font-weight: bold; text-shadow: rgba(0, 0, 0, 0.8) 0.625px 0.625px 1.25px;">Subgroups and Quotient groups</text><text transform="rotate(214.2) translate(187.5,0) rotate(180)" dy="0.35em" text-anchor="middle" font-size="7.96875px" style="pointer-events: none; fill: rgb(255, 255, 255); font-weight: bold; text-shadow: rgba(0, 0, 0, 0.8) 0.625px 0.625px 1.25px;"><tspan x="0" dy="0">Group Actions</tspan><tspan x="0" dy="1.1em">and Sylow theorems</tspan></text><text transform="rotate(229.5) translate(187.5,0) rotate(180)" dy="0.35em" text-anchor="middle" font-size="5px" style="pointer-events: none; fill: rgb(255, 255, 255); font-weight: bold; text-shadow: rgba(0, 0, 0, 0.8) 0.625px 0.625px 1.25px;"><tspan x="0" dy="0">p-Groups, Nilpotent Groups</tspan><tspan x="0" dy="1.1em">and Solvable Groups</tspan></text><text transform="rotate(236.69999999999993) translate(187.5,0) rotate(180)" dy="0.35em" text-anchor="middle" font-size="5px" style="pointer-events: none; fill: rgb(255, 255, 255); font-weight: bold; text-shadow: rgba(0, 0, 0, 0.8) 0.625px 0.625px 1.25px;">Basic Definitions and Examples</text><text transform="rotate(245.69999999999993) translate(187.5,0) rotate(180)" dy="0.35em" text-anchor="middle" font-size="5px" style="pointer-events: none; fill: rgb(255, 255, 255); font-weight: bold; text-shadow: rgba(0, 0, 0, 0.8) 0.625px 0.625px 1.25px;">PID, ED and UFD</text><text transform="rotate(260.09999999999997) translate(187.5,0) rotate(180)" dy="0.35em" text-anchor="middle" font-size="9.375px" style="pointer-events: none; fill: rgb(255, 255, 255); font-weight: bold; text-shadow: rgba(0, 0, 0, 0.8) 0.625px 0.625px 1.25px;">Polynomials</text></g></svg>